<svg xmlns="http://www.w3.org/2000/svg" xmlns:xlink="http://www.w3.org/1999/xlink" width="1080" zoomAndPan="magnify" viewBox="0 0 810 809.999993" height="1080" preserveAspectRatio="xMidYMid meet" version="1.0"><defs><clipPath id="d793c58d9f"><path d="M 4 160.3125 L 808 160.3125 L 808 650.0625 L 4 650.0625 Z M 4 160.3125 " clip-rule="nonzero"/></clipPath><clipPath id="7be97c4fc0"><path d="M 221.460938 161.8125 L 464.460938 161.8125 L 464.460938 176.671875 L 221.460938 176.671875 Z M 221.460938 161.8125 " clip-rule="nonzero"/></clipPath><clipPath id="10018c9644"><path d="M 309.234375 316.035156 L 499.707031 316.035156 L 499.707031 490.636719 L 309.234375 490.636719 Z M 309.234375 316.035156 " clip-rule="nonzero"/></clipPath><clipPath id="24bd409299"><path d="M 306.191406 312.84375 L 503.71875 312.84375 L 503.71875 493.617188 L 306.191406 493.617188 Z M 306.191406 312.84375 " clip-rule="nonzero"/></clipPath><clipPath id="6c866e633b"><path d="M 309.234375 319.441406 L 499.707031 319.441406 L 499.707031 494.042969 L 309.234375 494.042969 Z M 309.234375 319.441406 " clip-rule="nonzero"/></clipPath><clipPath id="f91e8aa599"><path d="M 306.191406 316.25 L 503.71875 316.25 L 503.71875 497.023438 L 306.191406 497.023438 Z M 306.191406 316.25 " clip-rule="nonzero"/></clipPath><clipPath id="f1c2d1b83b"><path d="M 148.03125 347 L 214 347 L 214 465 L 148.03125 465 Z M 148.03125 347 " clip-rule="nonzero"/></clipPath><clipPath id="32cc81029f"><path d="M 596 346 L 661.96875 346 L 661.96875 464 L 596 464 Z M 596 346 " clip-rule="nonzero"/></clipPath><clipPath id="0122c67816"><path d="M 509 323 L 580 323 L 580 486.605469 L 509 486.605469 Z M 509 323 " clip-rule="nonzero"/></clipPath><clipPath id="7ba7044a16"><path d="M 512 324 L 583 324 L 583 487.695312 L 512 487.695312 Z M 512 324 " clip-rule="nonzero"/></clipPath></defs><rect x="-81" width="972" fill="#ffffff" y="-80.999999" height="971.999992" fill-opacity="1"/><rect x="-81" width="972" fill="#ffffff" y="-80.999999" height="971.999992" fill-opacity="1"/><g clip-path="url(#d793c58d9f)"><path fill="#1a1a1a" d="M 97.46875 160.3125 C 84.953125 160.3125 74.878906 170.179688 74.878906 182.429688 L 74.878906 587.054688 C 74.878906 598.707031 73.234375 608.199219 83.835938 609.101562 L 9.59375 609.101562 C 0.808594 609.101562 5.300781 615.953125 5.300781 624.464844 L 5.300781 634.707031 C 5.300781 643.214844 12.375 650.066406 21.160156 650.066406 L 790.335938 650.066406 C 799.121094 650.066406 806.195312 643.214844 806.195312 634.707031 L 806.195312 624.464844 C 806.195312 615.953125 810.6875 609.101562 801.902344 609.101562 L 727.660156 609.101562 C 738.261719 608.199219 736.621094 598.707031 736.621094 587.054688 L 736.621094 182.429688 C 736.621094 170.179688 726.542969 160.3125 714.03125 160.3125 L 97.464844 160.3125 Z M 292.636719 165.675781 C 295.847656 165.675781 298.453125 168.226562 298.453125 171.371094 C 298.453125 174.515625 295.847656 177.0625 292.636719 177.0625 C 289.425781 177.0625 286.824219 174.515625 286.824219 171.371094 C 286.824219 168.226562 289.425781 165.675781 292.636719 165.675781 Z M 96.917969 182.472656 L 714.582031 182.472656 L 714.582031 587.007812 L 96.917969 587.007812 Z M 305.335938 609.175781 L 506.164062 609.175781 C 505.863281 613.457031 502.886719 616.800781 499.230469 616.800781 L 312.269531 616.800781 C 308.613281 616.800781 305.636719 613.457031 305.335938 609.175781 Z M 713.097656 621.292969 C 717.828125 621.292969 721.664062 625.003906 721.664062 629.585938 C 721.664062 634.167969 717.828125 637.882812 713.097656 637.882812 C 708.371094 637.882812 704.535156 634.167969 704.535156 629.585938 C 704.535156 625.003906 708.371094 621.292969 713.097656 621.292969 Z M 740.109375 621.292969 C 744.839844 621.292969 748.671875 625.003906 748.671875 629.585938 C 748.671875 634.167969 744.839844 637.882812 740.109375 637.882812 C 735.378906 637.882812 731.546875 634.167969 731.546875 629.585938 C 731.546875 625.003906 735.378906 621.292969 740.109375 621.292969 Z M 767.121094 621.292969 C 771.847656 621.292969 775.683594 625.003906 775.683594 629.585938 C 775.683594 634.167969 771.847656 637.882812 767.121094 637.882812 C 762.390625 637.882812 758.554688 634.167969 758.554688 629.585938 C 758.554688 625.003906 762.390625 621.292969 767.121094 621.292969 Z M 39.480469 626.785156 L 84.414062 626.785156 C 86.613281 626.785156 88.378906 628.035156 88.378906 629.585938 C 88.378906 631.140625 86.613281 632.386719 84.414062 632.386719 L 39.480469 632.386719 C 37.28125 632.386719 35.515625 631.140625 35.515625 629.585938 C 35.515625 628.035156 37.28125 626.785156 39.480469 626.785156 Z M 39.480469 626.785156 " fill-opacity="1" fill-rule="nonzero"/></g><g clip-path="url(#7be97c4fc0)"><path fill="#000000" d="M 221.460938 161.8125 L 464.460938 161.8125 L 464.460938 176.671875 L 221.460938 176.671875 Z M 221.460938 161.8125 " fill-opacity="1" fill-rule="nonzero"/></g><g clip-path="url(#10018c9644)"><path fill="#000000" d="M 320.5 384.710938 L 320.523438 384.75 L 320.601562 384.945312 C 330.125 407.929688 371.191406 449.503906 404.472656 479.0625 C 417.628906 467.359375 476.234375 414.164062 488.339844 384.949219 L 488.433594 384.730469 C 490.589844 379.429688 491.683594 373.832031 491.683594 368.089844 C 491.683594 343.785156 471.917969 324.011719 447.628906 324.011719 C 431.722656 324.011719 416.734375 341.589844 408.71875 356.65625 L 404.46875 364.953125 L 400.222656 356.652344 C 392.207031 341.585938 377.21875 324.007812 361.3125 324.007812 C 337.019531 324.007812 317.257812 343.78125 317.257812 368.085938 C 317.257812 373.820312 318.347656 379.414062 320.5 384.710938 Z M 403.371094 490.625 L 401.316406 486.921875 C 388.5 475.621094 326.648438 420.019531 313.3125 388.1875 L 313.285156 388.140625 L 313.210938 387.957031 C 310.605469 381.632812 309.28125 374.945312 309.28125 368.085938 C 309.28125 339.378906 332.625 316.027344 361.3125 316.027344 C 378.957031 316.027344 394.636719 331.746094 404.472656 347.992188 C 414.304688 331.746094 429.988281 316.03125 447.628906 316.03125 C 476.316406 316.03125 499.660156 339.382812 499.660156 368.089844 C 499.660156 374.949219 498.335938 381.636719 495.730469 387.960938 L 495.621094 388.207031 C 481.128906 422.769531 410.105469 484.769531 407.085938 487.398438 L 403.371094 490.625 " fill-opacity="1" fill-rule="nonzero"/></g><g clip-path="url(#24bd409299)"><path fill="#000000" d="M 317.878906 383.945312 L 317.902344 383.988281 L 317.984375 384.191406 C 327.855469 407.988281 370.441406 451.03125 404.957031 481.636719 C 418.597656 469.515625 479.378906 414.441406 491.929688 384.191406 L 492.027344 383.96875 C 494.261719 378.480469 495.398438 372.683594 495.398438 366.738281 C 495.398438 341.574219 474.902344 321.101562 449.710938 321.101562 C 433.214844 321.101562 417.671875 339.300781 409.363281 354.902344 L 404.957031 363.488281 L 400.550781 354.898438 C 392.238281 339.300781 376.695312 321.097656 360.199219 321.097656 C 335.007812 321.097656 314.515625 341.570312 314.515625 366.734375 C 314.515625 372.675781 315.644531 378.464844 317.878906 383.945312 Z M 403.816406 493.605469 L 401.683594 489.773438 C 388.394531 478.070312 324.253906 420.503906 310.421875 387.546875 L 310.394531 387.496094 L 310.316406 387.308594 C 307.613281 380.757812 306.242188 373.835938 306.242188 366.734375 C 306.242188 337.015625 330.449219 312.835938 360.199219 312.835938 C 378.496094 312.835938 394.757812 329.109375 404.957031 345.933594 C 415.15625 329.109375 431.417969 312.839844 449.710938 312.839844 C 479.460938 312.839844 503.667969 337.019531 503.667969 366.738281 C 503.667969 373.839844 502.296875 380.761719 499.59375 387.3125 L 499.480469 387.570312 C 484.449219 423.351562 410.800781 487.546875 407.667969 490.265625 L 403.816406 493.605469 " fill-opacity="1" fill-rule="nonzero"/></g><g clip-path="url(#6c866e633b)"><path fill="#000000" d="M 320.5 388.113281 L 320.523438 388.15625 L 320.601562 388.351562 C 330.125 411.335938 371.191406 452.910156 404.472656 482.46875 C 417.628906 470.765625 476.234375 417.570312 488.339844 388.351562 L 488.433594 388.136719 C 490.589844 382.835938 491.683594 377.238281 491.683594 371.496094 C 491.683594 347.1875 471.917969 327.417969 447.628906 327.417969 C 431.722656 327.417969 416.734375 344.996094 408.71875 360.0625 L 404.46875 368.359375 L 400.222656 360.058594 C 392.207031 344.992188 377.21875 327.414062 361.3125 327.414062 C 337.019531 327.414062 317.257812 347.183594 317.257812 371.492188 C 317.257812 377.226562 318.347656 382.820312 320.5 388.113281 Z M 403.371094 494.03125 L 401.316406 490.328125 C 388.5 479.027344 326.648438 423.421875 313.3125 391.59375 L 313.285156 391.546875 L 313.210938 391.363281 C 310.605469 385.035156 309.28125 378.351562 309.28125 371.492188 C 309.28125 342.785156 332.625 319.433594 361.3125 319.433594 C 378.957031 319.433594 394.636719 335.148438 404.472656 351.398438 C 414.304688 335.152344 429.988281 319.4375 447.628906 319.4375 C 476.316406 319.4375 499.660156 342.789062 499.660156 371.496094 C 499.660156 378.355469 498.335938 385.039062 495.730469 391.367188 L 495.621094 391.613281 C 481.128906 426.175781 410.105469 488.175781 407.085938 490.804688 L 403.371094 494.03125 " fill-opacity="1" fill-rule="nonzero"/></g><g clip-path="url(#f91e8aa599)"><path fill="#000000" d="M 317.878906 387.351562 L 317.902344 387.394531 L 317.984375 387.59375 C 327.855469 411.390625 370.441406 454.4375 404.957031 485.039062 C 418.597656 472.921875 479.378906 417.847656 491.929688 387.597656 L 492.027344 387.371094 C 494.261719 381.886719 495.398438 376.089844 495.398438 370.144531 C 495.398438 344.980469 474.902344 324.507812 449.710938 324.507812 C 433.214844 324.507812 417.671875 342.707031 409.363281 358.304688 L 404.957031 366.894531 L 400.550781 358.300781 C 392.238281 342.707031 376.695312 324.503906 360.199219 324.503906 C 335.007812 324.503906 314.515625 344.976562 314.515625 370.140625 C 314.515625 376.078125 315.644531 381.867188 317.878906 387.351562 Z M 403.816406 497.011719 L 401.683594 493.179688 C 388.394531 481.476562 324.253906 423.910156 310.421875 390.953125 L 310.394531 390.902344 L 310.316406 390.714844 C 307.613281 384.164062 306.242188 377.242188 306.242188 370.140625 C 306.242188 340.421875 330.449219 316.242188 360.199219 316.242188 C 378.496094 316.242188 394.757812 332.515625 404.957031 349.335938 C 415.15625 332.515625 431.417969 316.246094 449.710938 316.246094 C 479.460938 316.246094 503.667969 340.425781 503.667969 370.144531 C 503.667969 377.246094 502.296875 384.167969 499.59375 390.71875 L 499.480469 390.972656 C 484.449219 426.757812 410.800781 490.949219 407.667969 493.671875 L 403.816406 497.011719 " fill-opacity="1" fill-rule="nonzero"/></g><path fill="#000000" d="M 199.792969 461.351562 C 200.960938 462.519531 202.71875 463.105469 203.890625 463.105469 C 205.0625 463.105469 206.816406 462.519531 207.988281 461.351562 C 210.328125 459.011719 210.328125 455.503906 207.988281 453.167969 L 159.398438 404.636719 L 207.988281 356.109375 C 210.328125 353.773438 210.328125 350.265625 207.988281 347.925781 C 205.644531 345.585938 202.132812 345.585938 199.792969 347.925781 L 147.101562 400.546875 C 144.761719 402.882812 144.761719 406.394531 147.101562 408.730469 Z M 199.792969 461.351562 " fill-opacity="1" fill-rule="nonzero"/><g clip-path="url(#f1c2d1b83b)"><path fill="#000000" d="M 203.058594 462.441406 C 204.230469 463.609375 205.988281 464.195312 207.160156 464.195312 C 208.328125 464.195312 210.085938 463.609375 211.257812 462.441406 C 213.597656 460.101562 213.597656 456.59375 211.257812 454.257812 L 162.664062 405.726562 L 211.257812 357.199219 C 213.597656 354.863281 213.597656 351.355469 211.257812 349.015625 C 208.914062 346.675781 205.402344 346.675781 203.058594 349.015625 L 150.371094 401.636719 C 148.03125 403.972656 148.03125 407.480469 150.371094 409.820312 Z M 203.058594 462.441406 " fill-opacity="1" fill-rule="nonzero"/></g><g clip-path="url(#32cc81029f)"><path fill="#000000" d="M 606.941406 347.925781 C 604.597656 345.585938 601.085938 345.585938 598.742188 347.925781 C 596.402344 350.265625 596.402344 353.773438 598.742188 356.109375 L 647.335938 404.636719 L 598.742188 453.167969 C 596.402344 455.503906 596.402344 459.011719 598.742188 461.351562 C 599.914062 462.519531 601.671875 463.105469 602.839844 463.105469 C 604.011719 463.105469 605.769531 462.519531 606.941406 461.351562 L 659.628906 408.730469 C 661.96875 406.394531 661.96875 402.882812 659.628906 400.546875 Z M 606.941406 347.925781 " fill-opacity="1" fill-rule="nonzero"/></g><g clip-path="url(#0122c67816)"><path fill="#000000" d="M 512.6875 485.90625 C 513.269531 485.90625 513.855469 486.492188 515.027344 486.492188 C 517.371094 486.492188 519.710938 485.324219 520.296875 482.984375 L 578.839844 330.96875 C 580.011719 328.046875 578.253906 324.539062 575.328125 323.371094 C 572.398438 322.199219 568.886719 323.953125 567.714844 326.878906 L 509.171875 478.890625 C 508.585938 481.816406 509.757812 484.738281 512.6875 485.90625 Z M 512.6875 485.90625 " fill-opacity="1" fill-rule="nonzero"/></g><path fill="#000000" d="M 610.207031 349.015625 C 607.867188 346.675781 604.355469 346.675781 602.011719 349.015625 C 599.671875 351.355469 599.671875 354.863281 602.011719 357.199219 L 650.601562 405.726562 L 602.011719 454.257812 C 599.671875 456.59375 599.671875 460.101562 602.011719 462.441406 C 603.183594 463.609375 604.9375 464.195312 606.109375 464.195312 C 607.28125 464.195312 609.039062 463.609375 610.207031 462.441406 L 662.898438 409.820312 C 665.238281 407.480469 665.238281 403.972656 662.898438 401.636719 Z M 610.207031 349.015625 " fill-opacity="1" fill-rule="nonzero"/><g clip-path="url(#7ba7044a16)"><path fill="#000000" d="M 515.953125 486.996094 C 516.539062 486.996094 517.125 487.582031 518.296875 487.582031 C 520.636719 487.582031 522.980469 486.414062 523.566406 484.074219 L 582.109375 332.058594 C 583.277344 329.136719 581.523438 325.628906 578.59375 324.457031 C 575.667969 323.289062 572.15625 325.042969 570.984375 327.96875 L 512.441406 479.980469 C 511.855469 482.90625 513.027344 485.828125 515.953125 486.996094 Z M 515.953125 486.996094 " fill-opacity="1" fill-rule="nonzero"/></g></svg>